<svg width="100" height="23" viewBox="0 0 100 23" fill="none" xmlns="http://www.w3.org/2000/svg">
<path d="M11.2903 14.1756L14.3763 16.4212C14.8655 16.785 15.5304 16.2957 15.3422 15.7187L14.163 12.0932L17.2114 9.92296C17.7132 9.57171 17.4623 8.78138 16.8476 8.78138H13.1093L11.8924 4.99285C11.7043 4.41579 10.8888 4.41579 10.7007 4.99285L9.47128 8.78138H5.73293C5.11823 8.78138 4.86733 9.57171 5.36913 9.92296L8.41751 12.0932L7.2383 15.7187C7.05013 16.2957 7.715 16.7724 8.20425 16.4212L11.2903 14.1756Z" fill="#EA328F"/>
<path d="M30.645 14.1756L33.731 16.4212C34.2203 16.785 34.8852 16.2957 34.697 15.7187L33.5178 12.0932L36.5662 9.92296C37.0679 9.57171 36.8171 8.78138 36.2024 8.78138H32.464L31.2472 4.99285C31.059 4.41579 30.2436 4.41579 30.0554 4.99285L28.826 8.78138H25.0877C24.473 8.78138 24.2221 9.57171 24.7239 9.92296L27.7722 12.0932L26.593 15.7187C26.4049 16.2957 27.0697 16.7724 27.559 16.4212L30.645 14.1756Z" fill="#EA328F"/>
<path d="M50 14.1756L53.086 16.4212C53.5753 16.785 54.2401 16.2957 54.052 15.7187L52.8727 12.0932L55.9211 9.92296C56.4229 9.57171 56.172 8.78138 55.5573 8.78138H51.819L50.6021 4.99285C50.414 4.41579 49.5986 4.41579 49.4104 4.99285L48.181 8.78138H44.4426C43.8279 8.78138 43.5771 9.57171 44.0788 9.92296L47.1272 12.0932L45.948 15.7187C45.7598 16.2957 46.4247 16.7724 46.914 16.4212L50 14.1756Z" fill="#EA328F"/>
<path d="M69.3547 14.1756L72.4407 16.4212C72.93 16.785 73.5949 16.2957 73.4067 15.7187L72.2275 12.0932L75.2759 9.92296C75.7777 9.57171 75.5268 8.78138 74.9121 8.78138H71.1737L69.9569 4.99285C69.7687 4.41579 68.9533 4.41579 68.7651 4.99285L67.5357 8.78138H63.7974C63.1827 8.78138 62.9318 9.57171 63.4336 9.92296L66.482 12.0932L65.3028 15.7187C65.1146 16.2957 65.7795 16.7724 66.2687 16.4212L69.3547 14.1756Z" fill="#EA328F"/>
<path d="M88.7097 14.1756L91.7957 16.4212C92.285 16.785 92.9498 16.2957 92.7617 15.7187L91.5825 12.0932L94.6309 9.92296C95.1326 9.57171 94.8817 8.78138 94.2671 8.78138H90.5287L89.3119 4.99285C89.1237 4.41579 88.3083 4.41579 88.1201 4.99285L86.8907 8.78138H83.1524C82.5377 8.78138 82.2868 9.57171 82.7886 9.92296L85.8369 12.0932L84.6577 15.7187C84.4696 16.2957 85.1344 16.7724 85.6237 16.4212L88.7097 14.1756Z" fill="#EA328F"/>
</svg>
