<svg width="248" height="56" viewBox="0 0 248 56" fill="none" xmlns="http://www.w3.org/2000/svg">
<path d="M27.9999 35.1555L35.6532 40.7244C36.8665 41.6266 38.5154 40.4133 38.0487 38.9822L35.1243 29.9911L42.6843 24.6088C43.9287 23.7377 43.3065 21.7777 41.7821 21.7777H32.511L29.4932 12.3822C29.0265 10.9511 27.0043 10.9511 26.5376 12.3822L23.4887 21.7777H14.2176C12.6932 21.7777 12.071 23.7377 13.3154 24.6088L20.8754 29.9911L17.951 38.9822C17.4843 40.4133 19.1332 41.5955 20.3465 40.7244L27.9999 35.1555Z" fill="#EA328F"/>
<path d="M75.9999 35.1555L83.6532 40.7244C84.8665 41.6266 86.5154 40.4133 86.0487 38.9822L83.1243 29.9911L90.6843 24.6088C91.9287 23.7377 91.3065 21.7777 89.7821 21.7777H80.511L77.4932 12.3822C77.0265 10.9511 75.0043 10.9511 74.5376 12.3822L71.4887 21.7777H62.2176C60.6932 21.7777 60.071 23.7377 61.3154 24.6088L68.8754 29.9911L65.951 38.9822C65.4843 40.4133 67.1332 41.5955 68.3465 40.7244L75.9999 35.1555Z" fill="#EA328F"/>
<path d="M124 35.1555L131.653 40.7244C132.867 41.6266 134.515 40.4133 134.049 38.9822L131.124 29.9911L138.684 24.6088C139.929 23.7377 139.307 21.7777 137.782 21.7777H128.511L125.493 12.3822C125.027 10.9511 123.004 10.9511 122.538 12.3822L119.489 21.7777H110.218C108.693 21.7777 108.071 23.7377 109.315 24.6088L116.875 29.9911L113.951 38.9822C113.484 40.4133 115.133 41.5955 116.347 40.7244L124 35.1555Z" fill="#EA328F"/>
<path d="M172 35.1555L179.653 40.7244C180.867 41.6266 182.515 40.4133 182.049 38.9822L179.124 29.9911L186.684 24.6088C187.929 23.7377 187.307 21.7777 185.782 21.7777H176.511L173.493 12.3822C173.027 10.9511 171.004 10.9511 170.538 12.3822L167.489 21.7777H158.218C156.693 21.7777 156.071 23.7377 157.315 24.6088L164.875 29.9911L161.951 38.9822C161.484 40.4133 163.133 41.5955 164.347 40.7244L172 35.1555Z" fill="#EA328F"/>
<path d="M220 35.1555L227.653 40.7244C228.867 41.6266 230.515 40.4133 230.049 38.9822L227.124 29.9911L234.684 24.6088C235.929 23.7377 235.307 21.7777 233.782 21.7777H224.511L221.493 12.3822C221.027 10.9511 219.004 10.9511 218.538 12.3822L215.489 21.7777H206.218C204.693 21.7777 204.071 23.7377 205.315 24.6088L212.875 29.9911L209.951 38.9822C209.484 40.4133 211.133 41.5955 212.347 40.7244L220 35.1555Z" fill="#EA328F"/>
</svg>
