<svg width="21" height="20" viewBox="0 0 21 20" fill="none" xmlns="http://www.w3.org/2000/svg">
<g id="location 1" clip-path="url(#clip0_316_89)">
<g id="Clip path group">
<mask id="mask0_316_89" style="mask-type:luminance" maskUnits="userSpaceOnUse" x="0" y="0" width="21" height="20">
<g id="clip-path">
<path id="&#236;&#130;&#172;&#234;&#176;&#129;&#237;&#152;&#149; 142" d="M20.5 0H0.5V20H20.5V0Z" fill="white"/>
</g>
</mask>
<g mask="url(#mask0_316_89)">
<g id="&#234;&#183;&#184;&#235;&#163;&#185; 61">
<path id="&#237;&#140;&#168;&#236;&#138;&#164; 58" d="M4.77295 8.37091V8.22727C4.77295 6.70831 5.37636 5.25155 6.45043 4.17748C7.5245 3.10341 8.98126 2.5 10.5002 2.5C12.0192 2.5 13.4759 3.10341 14.55 4.17748C15.6241 5.25155 16.2275 6.70831 16.2275 8.22727V8.37091C16.2275 11.2555 12.5757 15.5964 11.1029 17.23C11.0269 17.3149 10.9338 17.3829 10.8297 17.4294C10.7256 17.4759 10.6129 17.4999 10.4989 17.4999C10.3848 17.4999 10.2721 17.4759 10.168 17.4294C10.0639 17.3829 9.97083 17.3149 9.89477 17.23C8.42477 15.5964 4.77295 11.2545 4.77295 8.37091Z" stroke="#323232" stroke-width="1.447" stroke-linecap="round" stroke-linejoin="round"/>
<path id="&#237;&#140;&#168;&#236;&#138;&#164; 59" d="M8.83398 8.29551C8.83398 8.73757 9.0096 9.16153 9.32218 9.47412C9.63477 9.78671 10.0587 9.96232 10.5008 9.96232C10.9429 9.96232 11.3668 9.78671 11.6794 9.47412C11.992 9.16153 12.1676 8.73757 12.1676 8.29551V8.2646C12.1676 7.82253 11.992 7.39857 11.6794 7.08598C11.3668 6.77339 10.9429 6.59778 10.5008 6.59778C10.0587 6.59778 9.63477 6.77339 9.32218 7.08598C9.0096 7.39857 8.83398 7.82253 8.83398 8.2646" stroke="#323232" stroke-width="1.447" stroke-linecap="round" stroke-linejoin="round"/>
</g>
</g>
</g>
</g>
<defs>
<clipPath id="clip0_316_89">
<rect width="20" height="20" fill="white" transform="translate(0.5)"/>
</clipPath>
</defs>
</svg>
